<svg viewBox="0 0 111 97" fill="none" xmlns="http://www.w3.org/2000/svg"><path fill-rule="evenodd" clip-rule="evenodd" d="M101.348 97H9.652C4.322 97 0 92.428 0 86.79V10.21C0 4.572 4.322 0 9.652 0h91.696C106.678 0 111 4.572 111 10.21v76.58c0 5.638-4.322 10.21-9.652 10.21zm4.826-86.79c0-2.818-2.162-5.105-4.826-5.105H9.652c-2.664 0-4.826 2.287-4.826 5.105v15.316h101.348V10.21zm0 20.422H4.826v56.157c0 2.819 2.162 5.106 4.826 5.106h91.696c2.664 0 4.826-2.287 4.826-5.105V30.632zm-9.652 35.736h-4.826c-1.332 0-2.413-1.14-2.413-2.552V58.71c0-1.41 1.08-2.553 2.413-2.553h4.826c1.334 0 2.413 1.143 2.413 2.553v5.105c0 1.411-1.079 2.552-2.413 2.552zm0-17.868h-4.826c-1.332 0-2.413-1.141-2.413-2.553v-5.105c0-1.411 1.08-2.553 2.413-2.553h4.826c1.334 0 2.413 1.142 2.413 2.553v5.105c0 1.412-1.079 2.553-2.413 2.553zM77.217 66.368h-4.826c-1.332 0-2.413-1.14-2.413-2.552V58.71c0-1.41 1.081-2.553 2.413-2.553h4.826c1.335 0 2.413 1.143 2.413 2.553v5.105c0 1.411-1.078 2.552-2.413 2.552zm0-17.868h-4.826c-1.332 0-2.413-1.141-2.413-2.553v-5.105c0-1.411 1.081-2.553 2.413-2.553h4.826c1.335 0 2.413 1.142 2.413 2.553v5.105c0 1.412-1.078 2.553-2.413 2.553zM57.913 66.368h-4.826c-1.335 0-2.413-1.14-2.413-2.552V58.71c0-1.41 1.078-2.553 2.413-2.553h4.826c1.335 0 2.413 1.143 2.413 2.553v5.105c0 1.411-1.078 2.552-2.413 2.552zm0-17.868h-4.826c-1.335 0-2.413-1.141-2.413-2.553v-5.105c0-1.411 1.078-2.553 2.413-2.553h4.826c1.335 0 2.413 1.142 2.413 2.553v5.105c0 1.412-1.078 2.553-2.413 2.553zM38.609 84.237h-4.826c-1.335 0-2.413-1.141-2.413-2.553V76.58c0-1.412 1.078-2.553 2.413-2.553h4.826c1.334 0 2.413 1.141 2.413 2.553v5.105c0 1.412-1.079 2.553-2.413 2.553zm0-17.869h-4.826c-1.335 0-2.413-1.14-2.413-2.552V58.71c0-1.41 1.078-2.553 2.413-2.553h4.826c1.334 0 2.413 1.143 2.413 2.553v5.105c0 1.411-1.079 2.552-2.413 2.552zm0-17.868h-4.826c-1.335 0-2.413-1.141-2.413-2.553v-5.105c0-1.411 1.078-2.553 2.413-2.553h4.826c1.334 0 2.413 1.142 2.413 2.553v5.105c0 1.412-1.079 2.553-2.413 2.553zM19.304 84.237h-4.826c-1.334 0-2.413-1.141-2.413-2.553V76.58c0-1.412 1.079-2.553 2.413-2.553h4.826c1.335 0 2.413 1.141 2.413 2.553v5.105c0 1.412-1.078 2.553-2.413 2.553zm0-17.869h-4.826c-1.334 0-2.413-1.14-2.413-2.552V58.71c0-1.41 1.079-2.553 2.413-2.553h4.826c1.335 0 2.413 1.143 2.413 2.553v5.105c0 1.411-1.078 2.552-2.413 2.552zm33.783 7.658h4.826c1.335 0 2.413 1.141 2.413 2.553v5.105c0 1.412-1.078 2.553-2.413 2.553h-4.826c-1.335 0-2.413-1.141-2.413-2.553V76.58c0-1.412 1.078-2.553 2.413-2.553z" fill="#fff"/></svg>