<svg viewBox="0 0 64 97" fill="none" xmlns="http://www.w3.org/2000/svg"><path fill-rule="evenodd" clip-rule="evenodd" d="M54.154 97H9.846C4.41 97 0 93.223 0 88.565V8.435C0 3.777 4.409 0 9.846 0h44.308C59.59 0 64 3.777 64 8.435v80.13C64 93.223 59.591 97 54.154 97zm4.923-88.565c0-2.328-2.206-4.218-4.923-4.218H9.846c-2.717 0-4.923 1.89-4.923 4.218v8.435h54.154V8.435zm0 12.652H4.923v54.826h54.154V21.087zm0 59.043H4.923v8.435c0 2.328 2.206 4.218 4.923 4.218h44.308c2.717 0 4.923-1.89 4.923-4.218V80.13zM32 90.674c-2.718 0-4.923-1.89-4.923-4.218 0-2.328 2.205-4.217 4.923-4.217s4.923 1.89 4.923 4.218c0 2.328-2.206 4.217-4.923 4.217zM14.77 27.413h4.922c1.361 0 2.462.945 2.462 2.109v4.217c0 1.164-1.1 2.109-2.462 2.109H14.77c-1.361 0-2.461-.945-2.461-2.109v-4.217c0-1.164 1.1-2.109 2.461-2.109zm0 14.76h4.922c1.361 0 2.462.946 2.462 2.11V48.5c0 1.166-1.1 2.109-2.462 2.109H14.77c-1.361 0-2.461-.943-2.461-2.109v-4.217c0-1.164 1.1-2.11 2.461-2.11zm0 14.762h4.922c1.361 0 2.462.942 2.462 2.108v4.218c0 1.166-1.1 2.109-2.462 2.109H14.77c-1.361 0-2.461-.943-2.461-2.11v-4.216c0-1.167 1.1-2.11 2.461-2.11zm14.768-29.522h4.924c1.36 0 2.461.945 2.461 2.109v4.217c0 1.164-1.1 2.109-2.462 2.109H29.54c-1.362 0-2.462-.945-2.462-2.109v-4.217c0-1.164 1.1-2.109 2.461-2.109zm0 14.76h4.924c1.36 0 2.461.946 2.461 2.11V48.5c0 1.166-1.1 2.109-2.462 2.109H29.54c-1.362 0-2.462-.943-2.462-2.109v-4.217c0-1.164 1.1-2.11 2.461-2.11zm0 14.762h4.924c1.36 0 2.461.942 2.461 2.108v4.218c0 1.166-1.1 2.109-2.462 2.109H29.54c-1.362 0-2.462-.943-2.462-2.11v-4.216c0-1.167 1.1-2.11 2.461-2.11zm14.77-29.522h4.923c1.361 0 2.461.945 2.461 2.109v4.217c0 1.164-1.1 2.109-2.461 2.109h-4.923c-1.361 0-2.462-.945-2.462-2.109v-4.217c0-1.164 1.1-2.109 2.462-2.109zm0 14.76h4.923c1.361 0 2.461.946 2.461 2.11V48.5c0 1.166-1.1 2.109-2.461 2.109h-4.923c-1.361 0-2.462-.943-2.462-2.109v-4.217c0-1.164 1.1-2.11 2.462-2.11zM24.615 8.436h14.77c1.36 0 2.461.944 2.461 2.108 0 1.165-1.1 2.11-2.461 2.11h-14.77c-1.36 0-2.461-.946-2.461-2.11s1.1-2.108 2.461-2.108z" fill="#fff"/></svg>