<svg viewBox="0 0 110 97" fill="none" xmlns="http://www.w3.org/2000/svg"><path fill-rule="evenodd" clip-rule="evenodd" d="M110 85.169C110 91.704 104.648 97 98.043 97H11.956C5.353 97 0 91.704 0 85.169v-68.62c0-5.227 4.283-9.465 9.565-9.465H57.8L77.167.142A2.376 2.376 0 0180.2 1.536l2.04 5.548h8.63c5.282 0 9.565 4.238 9.565 9.465v4.733c5.282 0 9.565 4.238 9.565 9.464V85.17zM9.565 11.817c-2.64 0-4.782 2.12-4.782 4.732 0 2.613 2.142 4.733 4.782 4.733h8.69c.031-.012.05-.038.082-.05l26.26-9.415H9.566zm69.535.428l-2.54-6.919h-.002l-4.905 1.758h.007l-13.185 4.733h-.024l-26.398 9.465h50.366l-3.32-9.037zm16.552 4.304c0-2.612-2.142-4.732-4.782-4.732h-6.895l3.477 9.465h8.2v-4.733zm4.783 9.465H9.565c-1.75 0-3.372-.5-4.782-1.313v60.468c0 3.92 3.214 7.099 7.173 7.099h86.087c3.963 0 7.174-3.178 7.174-7.099V68.606h-9.565c-5.282 0-9.565-4.238-9.565-9.465 0-5.227 4.283-9.465 9.565-9.465h9.565v-18.93c0-2.612-2.142-4.732-4.782-4.732zm4.782 37.86v-9.466h-9.565c-2.64 0-4.782 2.12-4.782 4.733 0 2.612 2.142 4.732 4.782 4.732h9.565zm-9.565-7.1h4.783v4.733h-4.783v-4.732z" fill="#fff"/></svg>